<mxfile host="app.diagrams.net" modified="2023-05-17T19:15:34.476Z" agent="Mozilla/5.0 (Windows NT 10.0; Win64; x64) AppleWebKit/537.36 (KHTML, like Gecko) Chrome/113.0.0.0 Safari/537.36" etag="t50QdRMVg9X2dXCehpWk" version="21.3.2" type="github">
  <diagram name="Page-1" id="KIgTXmxvYa88H6oYjYoF">
    <mxGraphModel dx="1050" dy="573" grid="1" gridSize="9" guides="1" tooltips="1" connect="1" arrows="1" fold="1" page="1" pageScale="1" pageWidth="850" pageHeight="1100" math="0" shadow="0">
      <root>
        <mxCell id="0" />
        <mxCell id="1" parent="0" />
        <mxCell id="mgdiacqMukvmcEIJ_Lel-4" style="edgeStyle=orthogonalEdgeStyle;rounded=0;orthogonalLoop=1;jettySize=auto;html=1;exitX=0;exitY=1;exitDx=0;exitDy=0;" edge="1" parent="1" source="mgdiacqMukvmcEIJ_Lel-1" target="mgdiacqMukvmcEIJ_Lel-2">
          <mxGeometry relative="1" as="geometry">
            <Array as="points">
              <mxPoint x="420" y="60" />
            </Array>
          </mxGeometry>
        </mxCell>
        <mxCell id="mgdiacqMukvmcEIJ_Lel-1" value="Every 5 Second,&lt;br&gt;file gets pulled from message bus.&lt;br&gt;processData()" style="rounded=1;whiteSpace=wrap;html=1;" vertex="1" parent="1">
          <mxGeometry x="360" width="120" height="60" as="geometry" />
        </mxCell>
        <mxCell id="mgdiacqMukvmcEIJ_Lel-8" style="edgeStyle=orthogonalEdgeStyle;rounded=0;orthogonalLoop=1;jettySize=auto;html=1;exitX=1;exitY=0.5;exitDx=0;exitDy=0;entryX=0;entryY=0.5;entryDx=0;entryDy=0;" edge="1" parent="1" source="mgdiacqMukvmcEIJ_Lel-2" target="mgdiacqMukvmcEIJ_Lel-3">
          <mxGeometry relative="1" as="geometry" />
        </mxCell>
        <mxCell id="mgdiacqMukvmcEIJ_Lel-11" style="edgeStyle=orthogonalEdgeStyle;rounded=0;orthogonalLoop=1;jettySize=auto;html=1;exitX=0.5;exitY=1;exitDx=0;exitDy=0;entryX=0.5;entryY=0;entryDx=0;entryDy=0;" edge="1" parent="1" source="mgdiacqMukvmcEIJ_Lel-2" target="mgdiacqMukvmcEIJ_Lel-10">
          <mxGeometry relative="1" as="geometry" />
        </mxCell>
        <mxCell id="mgdiacqMukvmcEIJ_Lel-2" value="mqttDataProcessing&lt;br&gt;( Read ENVR, MAGN,ULTRSND,&lt;br&gt;ACC )" style="rounded=0;whiteSpace=wrap;html=1;" vertex="1" parent="1">
          <mxGeometry x="360" y="140" width="120" height="60" as="geometry" />
        </mxCell>
        <mxCell id="mgdiacqMukvmcEIJ_Lel-3" value="mqttErrorUpdate" style="rounded=0;whiteSpace=wrap;html=1;" vertex="1" parent="1">
          <mxGeometry x="560" y="140" width="120" height="60" as="geometry" />
        </mxCell>
        <mxCell id="mgdiacqMukvmcEIJ_Lel-6" value="files available ?" style="text;html=1;strokeColor=none;fillColor=none;align=center;verticalAlign=middle;whiteSpace=wrap;rounded=0;" vertex="1" parent="1">
          <mxGeometry x="430" y="80" width="60" height="30" as="geometry" />
        </mxCell>
        <mxCell id="mgdiacqMukvmcEIJ_Lel-9" value="Error ?" style="text;html=1;strokeColor=none;fillColor=none;align=center;verticalAlign=middle;whiteSpace=wrap;rounded=0;" vertex="1" parent="1">
          <mxGeometry x="490" y="140" width="60" height="30" as="geometry" />
        </mxCell>
        <mxCell id="mgdiacqMukvmcEIJ_Lel-16" style="edgeStyle=orthogonalEdgeStyle;rounded=0;orthogonalLoop=1;jettySize=auto;html=1;exitX=0;exitY=0.5;exitDx=0;exitDy=0;entryX=0.443;entryY=-0.01;entryDx=0;entryDy=0;entryPerimeter=0;" edge="1" parent="1" source="mgdiacqMukvmcEIJ_Lel-10" target="mgdiacqMukvmcEIJ_Lel-14">
          <mxGeometry relative="1" as="geometry" />
        </mxCell>
        <mxCell id="mgdiacqMukvmcEIJ_Lel-17" style="edgeStyle=orthogonalEdgeStyle;rounded=0;orthogonalLoop=1;jettySize=auto;html=1;exitX=1;exitY=0.5;exitDx=0;exitDy=0;entryX=0.5;entryY=0;entryDx=0;entryDy=0;" edge="1" parent="1" source="mgdiacqMukvmcEIJ_Lel-10" target="mgdiacqMukvmcEIJ_Lel-15">
          <mxGeometry relative="1" as="geometry" />
        </mxCell>
        <mxCell id="mgdiacqMukvmcEIJ_Lel-10" value="devicesummary()" style="rounded=1;whiteSpace=wrap;html=1;" vertex="1" parent="1">
          <mxGeometry x="360" y="260" width="120" height="60" as="geometry" />
        </mxCell>
        <mxCell id="mgdiacqMukvmcEIJ_Lel-14" value="devicesummary_db()" style="rounded=0;whiteSpace=wrap;html=1;" vertex="1" parent="1">
          <mxGeometry x="240" y="380" width="120" height="60" as="geometry" />
        </mxCell>
        <mxCell id="mgdiacqMukvmcEIJ_Lel-15" value="devicesummary_only()" style="rounded=0;whiteSpace=wrap;html=1;" vertex="1" parent="1">
          <mxGeometry x="480" y="380" width="120" height="60" as="geometry" />
        </mxCell>
        <mxCell id="mgdiacqMukvmcEIJ_Lel-20" value="fwversion = 1 ?" style="text;html=1;strokeColor=none;fillColor=none;align=center;verticalAlign=middle;whiteSpace=wrap;rounded=0;imageWidth=30;" vertex="1" parent="1">
          <mxGeometry x="550" y="330" width="60" height="30" as="geometry" />
        </mxCell>
        <mxCell id="mgdiacqMukvmcEIJ_Lel-22" value="accData &amp;gt; 0 ?" style="text;html=1;strokeColor=none;fillColor=none;align=center;verticalAlign=middle;whiteSpace=wrap;rounded=0;" vertex="1" parent="1">
          <mxGeometry x="220" y="320" width="60" height="30" as="geometry" />
        </mxCell>
      </root>
    </mxGraphModel>
  </diagram>
</mxfile>
